<?xml version="1.0" encoding="utf-8"?>
<!-- Generator: Adobe Illustrator 23.0.3, SVG Export Plug-In . SVG Version: 6.00 Build 0)  -->
<svg version="1.1" id="レイヤー_1" focusable="false"
	 xmlns="http://www.w3.org/2000/svg" xmlns:xlink="http://www.w3.org/1999/xlink" x="0px" y="0px" viewBox="0 0 210.2 210.2"
	 style="enable-background:new 0 0 210.2 210.2;" xml:space="preserve">
<style type="text/css">
	.st0{fill:#0D7B91;}
</style>
<path class="st0" d="M205.2,182.1l-40.5-40.5c-1.8-1.8-4.3-2.8-6.9-2.8h-6.6c11.2-14.3,17.9-32.4,17.9-52C169,40,131.2,2.2,84.5,2.2
	S0,40,0,86.7s37.8,84.5,84.5,84.5c19.6,0,37.7-6.7,52-17.9v6.6c0,2.6,1,5.1,2.8,6.9l40.5,40.5c3.8,3.8,10,3.8,13.8,0l11.5-11.5
	C208.9,192.1,208.9,185.9,205.2,182.1z M84.5,138.7c-28.7,0-52-23.2-52-52c0-28.7,23.2-52,52-52c28.7,0,52,23.2,52,52
	C136.5,115.4,113.3,138.7,84.5,138.7z"/>
</svg>
