<svg xmlns="http://www.w3.org/2000/svg" viewBox="0 0 48.2 48.2"><defs id="defs56"><style id="style51">.cls-1{fill:none;}.cls-2{fill:#f0f0f0;}.cls-3{fill:#ffbf00;}.cls-4{clip-path:url(#clip-path);}.cls-5{fill:#424242;}</style><clipPath id="clip-path"><circle id="circle53" r="18.4" cy="24.1" cx="24.1" class="cls-1" /></clipPath></defs><title id="title58">kintonehelp</title><g data-name="Layer 1" id="Layer_1"><circle id="circle60" r="24.1" cy="24.1" cx="24.1" class="cls-2" /><circle id="circle62" r="18.4" cy="24.1" cx="24.1" class="cls-3" /><g id="g66" clip-path="url(#clip-path)" class="cls-4"><path id="path64" d="m 18.6,11.1 6.4,3.8 a 10.64,10.64 0 0 1 4.6,-3.8 7.54,7.54 0 0 1 5.3,0.4 7.78,7.78 0 0 1 4,3.5 4.88,4.88 0 0 1 0.1,4.4 5.13,5.13 0 0 1 -2.2,2.4 24.5,24.5 0 0 1 -5.3,1.7 c -2.9,0.8 -5,1.7 -6.3,2.9 a 14.08,14.08 0 0 0 -3.4,4.8 16.54,16.54 0 0 1 -0.8,1.7 l 6.7,2.9 a 13,13 0 0 1 2.3,-4 10.5,10.5 0 0 1 4.2,-1.8 c 4,-1.2 6.7,-2.3 8.3,-3.4 V 9.4 A 11.51,11.51 0 0 0 40.8,8 c 0,0 -14.3,-3.6 -16,-2.7 a 13.31,13.31 0 0 0 -6.2,5.8 z" /></g><g id="g70" clip-path="url(#clip-path)" class="cls-4"><polygon id="polygon68" points="25.7,42.7 27.4,38.7 20.1,35.5 17,42.7 " /></g></g></svg>