<svg width="390px" height="87px" viewBox="0 0 390 87" version="1.1" xmlns="http://www.w3.org/2000/svg" xmlns:xlink="http://www.w3.org/1999/xlink"> <g id="Symbols" stroke="none" stroke-width="1" fill="none" fill-rule="evenodd"> <g id="Logo" transform="translate(-44.000000, -44.000000)"> <g id="KIN_Logo_H_clr_p"> <path d="M235.999066,108.468139 C236.02061,109.39567 235.668571,110.292718 235.022618,110.956273 C234.376665,111.619829 233.491406,111.993797 232.567183,111.993545 C231.524134,112.058986 230.511979,111.62396 229.839276,110.821086 L216.863716,95.3944265 L211.015915,100.871252 L211.015915,108.460109 C210.989576,110.424326 209.38885,111.998935 207.432037,111.985514 C205.516391,111.95907 203.982355,110.383231 204.000153,108.460109 L204.000153,62.5254423 C203.995875,61.5891366 204.364501,60.6899383 205.024036,60.0278632 C205.683572,59.3657881 206.57932,58.9957419 207.512034,59.000037 C209.441227,59.0218185 210.998617,60.5887754 211.015915,62.5254423 L211.015915,92.9692046 L229.959271,74.2660861 C230.563422,73.6782635 231.382756,73.367287 232.223195,73.4068187 C234.000207,73.4503362 235.419279,74.9069256 235.423086,76.691308 C235.387332,77.5516239 235.023607,78.365249 234.40712,78.9639497 L222.007542,91.0980897 L235.183094,106.123223 C235.710841,106.79006 235.998411,107.616472 235.999066,108.468139 L235.999066,108.468139 Z" id="Shape" fill="#000000" fill-rule="nonzero"></path> <path d="M239,61.4006474 C239.039191,58.955902 241.043744,56.99581 243.5,57.0004565 C244.68482,56.983508 245.82721,57.4390974 246.672538,58.265676 C247.517865,59.0922546 247.995868,60.2211177 248,61.4006474 C247.995616,63.8727825 245.983463,65.8757571 243.5,65.880121 C241.027285,65.8501784 239.03008,63.862083 239,61.4006474 Z M240.09115,107.527333 L240.09115,76.3850811 C240.086904,75.4620776 240.452822,74.5755422 241.107733,73.9221296 C241.762645,73.268717 242.652406,72.902448 243.579646,72.9045698 C245.500368,72.926074 247.050919,74.4730766 247.068142,76.3850811 L247.068142,107.519405 C247.041918,109.458608 245.448221,111.013166 243.5,110.999916 C241.599022,110.969508 240.077793,109.419838 240.09115,107.527333 Z" id="Shape" fill="#000000" fill-rule="nonzero"></path> <path d="M288,85.17047 L288,108.487202 C287.974011,110.444348 286.394561,112.013288 284.463756,111.999915 C282.573572,111.973566 281.059926,110.403401 281.077487,108.487202 L281.077487,87.5069442 C281.077487,81.2736792 277.920127,79.2412667 273.184086,79.2412667 C269.119391,79.3701476 265.337461,81.3814087 262.922664,84.6983742 L262.922664,108.479201 C262.905596,110.408895 261.368906,111.97021 259.465354,111.991914 C258.545038,111.996193 257.661195,111.627479 257.010426,110.967788 C256.359657,110.308096 255.99593,109.412135 256.000151,108.479201 L256.000151,77.0568233 C255.98259,75.1406251 257.496236,73.5704592 259.38642,73.5441104 C261.317225,73.5307377 262.896675,75.0996781 262.922664,77.0568233 L262.922664,79.1612504 C266.278655,75.3546342 271.038334,73.1246215 276.073071,73 C283.927005,73.0080016 288,77.2168558 288,85.17047 Z" id="Shape" fill="#000000" fill-rule="nonzero"></path> <path d="M313.996495,108.284211 C314.057378,109.460666 313.31994,110.534511 312.189051,110.916182 C310.48404,111.664416 308.632794,112.033623 306.76672,111.997595 C300.787631,111.997595 297.721432,108.665887 297.721432,102.773772 L297.721432,79.7698744 L294.106544,79.7698744 C292.390847,79.7698744 291,78.399259 291,76.7085192 C291,75.0177794 292.390847,73.647164 294.106544,73.647164 L297.721432,73.647164 L297.721432,66.4907493 C297.71713,65.5650332 298.087841,64.6758924 298.751333,64.0205595 C299.414824,63.3652265 300.316242,62.9978811 301.25563,63.0000092 C303.201515,63.0215766 304.77238,64.5731256 304.789828,66.4907493 L304.789828,73.647164 L309.744161,73.647164 C311.459857,73.647164 312.850705,75.0177794 312.850705,76.7085192 C312.850705,78.399259 311.459857,79.7698744 309.744161,79.7698744 L304.789828,79.7698744 L304.789828,101.239119 C304.789828,103.871089 306.048583,105.811272 308.485405,105.811272 C309.82485,105.811272 310.292849,105.34213 311.002916,105.34213 C311.807605,105.300665 312.592464,105.597015 313.163011,106.157747 C313.733558,106.718479 314.0364,107.491119 313.996495,108.284211 Z" id="Shape" fill="#000000" fill-rule="nonzero"></path> <path d="M314,92.9595142 C314,81.9878543 321.320294,73 333.003996,73 C344.687697,73 352,82.0283401 352,92.9595142 C352,103.890688 344.759621,113 332.996004,113 C321.232387,113 314,104.044534 314,92.9595142 Z M344.679706,92.9595142 C344.679706,85.7773279 340.548055,79.3076923 332.996004,79.3076923 C325.443954,79.3076923 321.312303,85.7854251 321.312303,92.9595142 C321.312303,100.133603 325.515878,106.724696 332.996004,106.724696 C340.47613,106.724696 344.679706,100.246964 344.679706,92.9595142 Z" id="Shape" fill="#000000" fill-rule="nonzero"></path> <path d="M390,85.17047 L390,108.487202 C389.974005,110.444348 388.394165,112.013288 386.462884,111.999915 C384.572233,111.973566 383.058213,110.403401 383.075779,108.487202 L383.075779,87.5069442 C383.075779,81.2736792 379.91764,79.2412667 375.18043,79.2412667 C371.114733,79.3701476 367.33187,81.3814087 364.916477,84.6983742 L364.916477,108.479201 C364.899404,110.408895 363.362335,111.97021 361.458314,111.991914 C360.539136,111.994055 359.657112,111.624397 359.007895,110.964939 C358.358678,110.305481 357.995942,109.410744 358.000151,108.479201 L358.000151,77.0568233 C357.982586,75.1406251 359.496605,73.5704592 361.387256,73.5441104 C363.318537,73.5307377 364.898377,75.0996781 364.924372,77.0568233 L364.924372,79.1612504 C368.281191,75.3546342 373.042044,73.1246215 378.078023,73 C385.918105,73.0080016 390,77.2168558 390,85.17047 Z" id="Shape" fill="#000000" fill-rule="nonzero"></path> <path d="M415.774587,73 C427.020224,73 434,81.9038363 434,91.9327937 C434,94.06162 432.527641,95.3243459 429.885354,95.3243459 L404.353859,95.3243459 C404.89505,101.799863 409.550887,107.158354 417.087772,107.158354 C420.428222,107.143085 423.680692,106.067796 426.391487,104.082483 C426.850362,103.776848 427.397009,103.637144 427.943433,103.685858 C428.685615,103.681519 429.398634,103.979459 429.923445,104.513218 C430.448256,105.046977 430.7412,105.772154 430.736935,106.526991 C430.747553,107.478899 430.279281,108.370353 429.495378,108.890555 C425.676293,111.661962 421.077781,113.101669 416.387407,112.994414 C405.245233,112.994414 397.000024,104.948583 397.000024,92.9607821 C396.984107,81.9119307 404.815463,73 415.774587,73 Z M404.298148,90.1924984 L427.155522,90.1924984 C427.004307,85.1415949 423.669613,78.8603432 415.75867,78.8603432 C408.229744,78.83606 404.632413,84.9878014 404.274272,90.1924984 L404.298148,90.1924984 Z" id="Shape" fill="#000000" fill-rule="nonzero"></path> <path d="M78.5222436,115.59355 L101.284687,102.158853 C101.63375,101.95337 102.069663,101.946805 102.425106,102.141679 C102.780549,102.336552 103.000296,102.702585 103,103.099282 L103,129.905455 C102.998546,130.299655 102.779918,130.662874 102.427115,130.857221 C102.074312,131.051568 101.641434,131.047242 101.292816,130.845884 L78.530373,117.4507 C78.2018471,117.25076 78.0016596,116.901088 78.0000103,116.524302 C77.9983609,116.147517 78.1954799,115.796201 78.5222436,115.59355 L78.5222436,115.59355 Z" id="Shape" fill="#EF3F24" fill-rule="nonzero"></path> <path d="M69.4298656,111.871493 L44.6943313,96.7818519 C44.2630486,96.5200124 43.9995747,96.0498789 44.0000005,95.542913 L44.0000005,65.0459549 C44.0090906,64.671695 44.2114655,64.3293111 44.5338941,64.1426976 C44.8563228,63.9560841 45.2521055,63.9522697 45.578025,64.1326345 L70.2977791,79.2222753 C70.7309358,79.4832881 70.9972015,79.9530647 71,80.4612142 L71,110.966114 C70.9868539,111.336565 70.7845324,111.6739 70.464983,111.85816 C70.1454336,112.04242 69.7539946,112.047462 69.4298656,111.871493 Z" id="Shape" fill="#EF3F24" fill-rule="nonzero"></path> <path d="M72.7682848,76.7873115 L47.5141145,61.4245019 C47.194638,61.2270256 47,60.8770195 47,60.5 C47,60.1229805 47.194638,59.7729744 47.5141145,59.5754981 L72.7283004,44.2126885 C73.1926162,43.9291038 73.7753962,43.9291038 74.2397121,44.2126885 L99.4858855,59.5754981 C99.805362,59.7729744 100,60.1229805 100,60.5 C100,60.8770195 99.805362,61.2270256 99.4858855,61.4245019 L74.2796965,76.7873115 C73.8153807,77.0708962 73.2326006,77.0708962 72.7682848,76.7873115 L72.7682848,76.7873115 Z" id="Shape" fill="#EF3F24" fill-rule="nonzero"></path> <path d="M99.4893645,98.417073 L76.6972827,111.846486 C76.350687,112.047057 75.9203193,112.051367 75.5695625,111.857779 C75.2188056,111.664192 75.0014456,111.302393 75,110.909733 L75,84.0902667 C75.0014456,83.6976072 75.2188056,83.3358078 75.5695625,83.1422205 C75.9203193,82.9486332 76.350687,82.9529431 76.6972827,83.153514 L99.4893645,96.582927 C99.8078766,96.784824 100,97.1298669 100,97.5 C100,97.8701331 99.8078766,98.215176 99.4893645,98.417073 Z" id="Shape" fill="#EF3F24" fill-rule="nonzero"></path> <path d="M101.285827,92.8411524 L78.5389784,79.4639686 C78.2041149,79.2642771 78,78.9096847 78,78.5276448 C78,78.1456048 78.2041149,77.7910124 78.5389784,77.5913209 L101.285827,64.1588268 C101.634651,63.9533774 102.070265,63.9468137 102.425464,64.1416553 C102.780664,64.3364968 103.00026,64.7024702 102.999964,65.0991014 L102.999964,91.8929764 C103.003213,92.29102 102.784777,92.6596182 102.429025,92.8564026 C102.073274,93.0531869 101.635896,93.0473523 101.285827,92.8411524 L101.285827,92.8411524 Z" id="Shape" fill="#EF3F24" fill-rule="nonzero"></path> <path d="M130.477756,115.59355 L107.715313,102.158853 C107.36625,101.95337 106.930337,101.946805 106.574894,102.141679 C106.219451,102.336552 105.999704,102.702585 106,103.099282 L106,129.905455 C106.001454,130.299655 106.220082,130.662874 106.572885,130.857221 C106.925688,131.051568 107.358566,131.047242 107.707184,130.845884 L130.469627,117.4507 C130.798153,117.25076 130.99834,116.901088 130.99999,116.524302 C131.001639,116.147517 130.80452,115.796201 130.477756,115.59355 Z" id="Shape" fill="#EF3F24" fill-rule="nonzero"></path> <path d="M138.570134,111.871493 L163.305669,96.7818519 C163.736951,96.5200124 164.000425,96.0498789 163.999999,95.542913 L163.999999,65.0459549 C163.990909,64.671695 163.788535,64.3293111 163.466106,64.1426976 C163.143677,63.9560841 162.747894,63.9522697 162.421975,64.1326345 L137.702221,79.2222753 C137.269064,79.4832881 137.002798,79.9530647 137,80.4612142 L137,110.966114 C137.013146,111.336565 137.215468,111.6739 137.535017,111.85816 C137.854566,112.04242 138.246005,112.047462 138.570134,111.871493 Z" id="Shape" fill="#EF3F24" fill-rule="nonzero"></path> <path d="M136.227607,76.7873115 L161.485963,61.4245019 C161.805391,61.2270256 162,60.8770195 162,60.5 C162,60.1229805 161.805391,59.7729744 161.485963,59.5754981 L136.275581,44.2126885 C135.811335,43.9291038 135.228643,43.9291038 134.764397,44.2126885 L109.514037,59.5754981 C109.194609,59.7729744 109,60.1229805 109,60.5 C109,60.8770195 109.194609,61.2270256 109.514037,61.4245019 L134.716423,76.7873115 C135.180669,77.0708962 135.763361,77.0708962 136.227607,76.7873115 L136.227607,76.7873115 Z" id="Shape" fill="#EF3F24" fill-rule="nonzero"></path> <path d="M109.510635,98.417073 L132.302717,111.846486 C132.649313,112.047057 133.079681,112.051367 133.430438,111.857779 C133.781194,111.664192 133.998554,111.302393 134,110.909733 L134,84.0902667 C133.998554,83.6976072 133.781194,83.3358078 133.430438,83.1422205 C133.079681,82.9486332 132.649313,82.9529431 132.302717,83.153514 L109.510635,96.582927 C109.192123,96.784824 109,97.1298669 109,97.5 C109,97.8701331 109.192123,98.215176 109.510635,98.417073 L109.510635,98.417073 Z" id="Shape" fill="#EF3F24" fill-rule="nonzero"></path> <path d="M107.714173,92.8411524 L130.461022,79.4639686 C130.795885,79.2642771 131,78.9096847 131,78.5276448 C131,78.1456048 130.795885,77.7910124 130.461022,77.5913209 L107.714173,64.1588268 C107.365349,63.9533774 106.929735,63.9468137 106.574536,64.1416553 C106.219336,64.3364968 105.99974,64.7024702 106.000036,65.0991014 L106.000036,91.8929764 C105.996787,92.29102 106.215223,92.6596182 106.570975,92.8564026 C106.926726,93.0531869 107.364104,93.0473523 107.714173,92.8411524 Z" id="Shape" fill="#EF3F24" fill-rule="nonzero"></path> <rect id="Rectangle-path" x="0" y="0" width="478" height="176"></rect> </g> </g> </g> </svg>